<svg width="125" height="24" viewBox="0 0 125 24" fill="none" xmlns="http://www.w3.org/2000/svg">
<path d="M15.2294 4.01318L0.891649 4.01318C0.410158 4.01318 0 4.43792 0 4.95498L0 6.63545C0 7.15251 0.410158 7.57725 0.891649 7.57725L15.2294 7.57725C15.7287 7.57725 16.121 7.15251 16.1388 6.63545V4.97345C16.1388 4.43792 15.7287 4.01318 15.2294 4.01318V4.01318ZM15.2294 13.3388L0.891649 13.3388C0.65982 13.3388 0.427991 13.4312 0.267495 13.6158C0.0891649 13.8005 0 14.0221 0 14.2806L0 15.9611C0 16.4782 0.410158 16.9029 0.891649 16.9029H15.2294C15.7287 16.9029 16.121 16.4966 16.1388 15.9611V14.2806C16.121 13.7451 15.7287 13.3388 15.2294 13.3388V13.3388ZM8.96998 17.9924H0.891649C0.65982 17.9924 0.427991 18.0848 0.267495 18.2694C0.106998 18.4541 0 18.6757 0 18.9342L0 20.6147C0 21.1318 0.410158 21.5565 0.891649 21.5565H8.95215C9.45148 21.5565 9.8438 21.1318 9.8438 20.6332V18.9527C9.86163 18.3987 9.46931 17.974 8.96998 17.9924V17.9924ZM16.1388 8.66678H0.891649C0.65982 8.66678 0.427991 8.75911 0.267495 8.94378C0.106998 9.12844 0 9.35004 0 9.60858L0 11.289C0 11.8061 0.410158 12.2308 0.891649 12.2308L16.121 12.2308C16.6203 12.2308 17.0127 11.8061 17.0127 11.289V9.60858C17.0305 9.09151 16.6203 8.68524 16.1388 8.66678V8.66678Z" fill="#00C3F7"/>
<path d="M34.8069 6.86997C34.2649 6.28625 33.6361 5.83723 32.9207 5.52292C32.2052 5.20861 31.4464 5.05145 30.6659 5.05145C29.9071 5.029 29.1699 5.20861 28.4762 5.54537C28.0209 5.76988 27.6089 6.08419 27.2621 6.46586V6.10664C27.2621 5.92703 27.197 5.74743 27.0886 5.61272C26.9802 5.47802 26.8068 5.38821 26.6116 5.38821H24.2051C24.0317 5.38821 23.8582 5.45557 23.7498 5.61272C23.6197 5.74743 23.5547 5.92703 23.5764 6.10664L23.5764 22.8999C23.5764 23.0795 23.6414 23.2591 23.7498 23.3938C23.8799 23.5285 24.0317 23.5959 24.2051 23.5959H26.6767C26.8501 23.5959 27.0019 23.5285 27.132 23.3938C27.2621 23.2816 27.3488 23.102 27.3271 22.8999V17.1525C27.674 17.5566 28.1293 17.8485 28.6279 18.0281C29.2783 18.275 29.9504 18.4097 30.6442 18.4097C31.4247 18.4097 32.2052 18.2526 32.9207 17.9383C33.6361 17.6239 34.2865 17.1749 34.8286 16.5912C35.3923 15.985 35.8259 15.2666 36.1294 14.4808C36.4763 13.6052 36.628 12.6623 36.6064 11.7194C36.628 10.7764 36.4546 9.83349 36.1294 8.93545C35.8042 8.19457 35.3706 7.47615 34.8069 6.86997V6.86997ZM32.5955 12.9542C32.4654 13.3134 32.2703 13.6277 32.0101 13.9196C31.5114 14.4808 30.796 14.7951 30.0588 14.7951C29.6903 14.7951 29.3217 14.7278 28.9748 14.5482C28.6496 14.391 28.3461 14.189 28.0859 13.9196C27.8258 13.6501 27.6306 13.3134 27.5005 12.9542C27.2187 12.1908 27.2187 11.3602 27.5005 10.5968C27.6306 10.2376 27.8474 9.92329 28.0859 9.65388C28.3461 9.38447 28.6496 9.15996 28.9748 9.00281C29.3217 8.84565 29.6903 8.75585 30.0588 8.75585C30.4491 8.75585 30.796 8.8232 31.1646 9.00281C31.4898 9.15996 31.7933 9.36202 32.0318 9.63143C32.2919 9.90084 32.4654 10.2152 32.6171 10.5744C32.8773 11.3602 32.8556 12.1908 32.5955 12.9542ZM49.8531 5.41067H47.4033C47.2298 5.41067 47.0564 5.47802 46.948 5.61272C46.8179 5.74743 46.7528 5.92704 46.7528 6.12909V6.4434C46.4493 6.06174 46.0591 5.76988 45.6471 5.56782C44.975 5.23106 44.2379 5.0739 43.5008 5.0739C41.9181 5.0739 40.4221 5.72498 39.2947 6.86997C38.7094 7.47615 38.2541 8.19457 37.9506 8.98036C37.6037 9.85594 37.4302 10.7989 37.4519 11.7643C37.4302 12.7072 37.6037 13.6501 37.9506 14.5482C38.2758 15.334 38.7094 16.0524 39.2947 16.6586C40.4004 17.826 41.9181 18.4771 43.4791 18.4771C44.2162 18.4995 44.9534 18.3199 45.6254 17.9832C46.0374 17.7587 46.4493 17.4668 46.7528 17.1076V17.4443C46.7528 17.624 46.8179 17.8036 46.948 17.9383C47.078 18.0505 47.2298 18.1403 47.4033 18.1403H49.8531C50.0266 18.1403 50.2 18.073 50.3084 17.9383C50.4385 17.8036 50.5036 17.624 50.5036 17.4443V6.15154C50.5036 5.97194 50.4385 5.79233 50.3301 5.65762C50.2 5.50047 50.0266 5.41067 49.8531 5.41067V5.41067ZM46.536 12.9542C46.4059 13.3134 46.2108 13.6277 45.9507 13.9196C45.6905 14.189 45.4086 14.4135 45.0834 14.5706C44.3897 14.9074 43.5875 14.9074 42.8937 14.5706C42.5685 14.4135 42.265 14.189 42.0048 13.9196C41.7446 13.6501 41.5495 13.3134 41.4194 12.9542C41.1593 12.1908 41.1593 11.3602 41.4194 10.5968C41.5495 10.2376 41.7446 9.94574 42.0048 9.65388C42.265 9.38447 42.5468 9.15996 42.8937 9.00281C43.5875 8.66604 44.3897 8.66604 45.0618 9.00281C45.387 9.15996 45.6905 9.36202 45.929 9.63143C46.1675 9.90084 46.3626 10.2152 46.5143 10.5744C46.8179 11.3602 46.8179 12.1908 46.536 12.9542V12.9542ZM74.2654 11.4275C73.9185 11.1132 73.5066 10.8438 73.073 10.6642C72.6177 10.4621 72.119 10.3274 71.6421 10.2152L69.7775 9.83349C69.3006 9.74368 68.9537 9.60898 68.7802 9.45183C68.6285 9.33957 68.5201 9.15996 68.5201 8.9579C68.5201 8.75585 68.6285 8.57624 68.8669 8.41908C69.1922 8.23948 69.539 8.14967 69.9076 8.17212C70.3846 8.17212 70.8616 8.28438 71.2952 8.46399C71.7288 8.66605 72.1407 8.8681 72.531 9.13751C73.073 9.49673 73.5499 9.42938 73.8751 9.02526L74.764 7.97007C74.9375 7.79046 75.0242 7.56595 75.0459 7.31899C75.0242 7.04958 74.8941 6.82507 74.699 6.64546C74.3304 6.3087 73.7234 5.94948 72.9212 5.59027C72.119 5.23106 71.1 5.05145 69.9076 5.05145C69.1705 5.029 68.455 5.14125 67.7612 5.36576C67.1759 5.56782 66.6122 5.85968 66.1135 6.24135C65.6582 6.60056 65.3113 7.04958 65.0512 7.5884C64.8127 8.10477 64.6826 8.66604 64.6826 9.22732C64.6826 10.2825 64.9861 11.1356 65.5932 11.7643C66.2002 12.3929 67.0024 12.8195 67.9997 13.0215L69.951 13.4705C70.3629 13.5379 70.7965 13.6726 71.1868 13.8746C71.4036 13.9645 71.5337 14.189 71.5337 14.4359C71.5337 14.6604 71.4253 14.8625 71.1868 15.0421C70.9483 15.2217 70.558 15.334 70.0377 15.334C69.5174 15.334 68.9754 15.2217 68.4984 14.9747C68.0431 14.7502 67.6312 14.4584 67.2409 14.1216C67.0675 13.9869 66.894 13.8746 66.6772 13.7848C66.4604 13.7175 66.1786 13.7848 65.8967 14.0318L64.8344 14.8625C64.5309 15.087 64.3791 15.4687 64.4658 15.8279C64.5309 16.2095 64.8127 16.5688 65.3547 16.9953C66.6989 17.9383 68.3033 18.4322 69.9293 18.3873C70.6881 18.3873 71.4469 18.2975 72.1624 18.073C72.7911 17.8709 73.3765 17.579 73.8968 17.1749C74.3738 16.8157 74.764 16.3442 75.0242 15.783C75.2844 15.2442 75.4145 14.6604 75.4145 14.0543C75.4361 13.5154 75.3277 12.9766 75.1109 12.4827C74.8941 12.1235 74.6123 11.7418 74.2654 11.4275V11.4275ZM84.9756 14.5033C84.8672 14.3012 84.672 14.1665 84.4336 14.1216C84.2168 14.1216 83.9783 14.189 83.8048 14.3237C83.5013 14.5257 83.1544 14.638 82.8075 14.6604C82.6991 14.6604 82.569 14.638 82.4606 14.6155C82.3305 14.5931 82.2221 14.5257 82.1354 14.4359C82.027 14.3237 81.9403 14.189 81.8753 14.0543C81.7885 13.8297 81.7452 13.6052 81.7669 13.3807V8.7783H84.9322C85.1273 8.7783 85.3008 8.6885 85.4309 8.55379C85.5609 8.41908 85.6477 8.26193 85.6477 8.05987V6.10664C85.6477 5.90458 85.5826 5.72498 85.4309 5.61272C85.3008 5.47802 85.1273 5.41067 84.9539 5.41067H81.7669V2.26754C81.7669 2.08793 81.7018 1.88587 81.5717 1.77362C81.4416 1.66136 81.2899 1.59401 81.1164 1.57156L78.6449 1.57156C78.4714 1.57156 78.298 1.63891 78.1679 1.77362C78.0378 1.90832 77.9511 2.08793 77.9511 2.26754V5.41067H76.5419C76.3684 5.41067 76.195 5.47802 76.0649 5.63517C75.9565 5.76988 75.8914 5.94949 75.8914 6.12909V8.08232C75.8914 8.26193 75.9565 8.44154 76.0649 8.57624C76.1733 8.7334 76.3467 8.80075 76.5419 8.80075H77.9511V14.2788C77.9294 14.9298 78.0595 15.5809 78.3197 16.1646C78.5581 16.6586 78.8617 17.0851 79.2736 17.4443C79.6638 17.7811 80.1191 18.0281 80.6178 18.1628C81.1164 18.3199 81.6368 18.4097 82.1571 18.4097C82.8292 18.4097 83.523 18.2975 84.1734 18.073C84.7804 17.8709 85.3225 17.5117 85.7561 17.0402C86.0379 16.7484 86.0596 16.2769 85.8428 15.9401L84.9756 14.5033ZM98.3741 5.41067H95.9242C95.7508 5.41067 95.599 5.47802 95.4689 5.61272C95.3388 5.74743 95.2738 5.92704 95.2738 6.12909V6.4434C94.9703 6.06174 94.6017 5.76988 94.1681 5.56782C93.496 5.23106 92.7589 5.0739 92.0217 5.0739C90.4391 5.0739 88.9431 5.72498 87.8157 6.86997C87.2303 7.47615 86.775 8.19457 86.4715 8.98036C86.1246 9.85594 85.9512 10.7989 85.9729 11.7418C85.9512 12.6847 86.1246 13.6277 86.4715 14.5257C86.775 15.3115 87.252 16.0299 87.8157 16.6361C88.9214 17.8036 90.4174 18.4546 92.0001 18.4546C92.7372 18.4771 93.4743 18.2975 94.1464 17.9832C94.58 17.7587 94.9703 17.4668 95.2738 17.1076V17.4443C95.2738 17.624 95.3388 17.8036 95.4689 17.9158C95.599 18.0505 95.7508 18.1179 95.9242 18.1179H98.3741C98.7427 18.1179 99.0245 17.826 99.0245 17.4443V6.15154C99.0245 5.97194 98.9595 5.79233 98.8511 5.65762C98.7427 5.50047 98.5692 5.41067 98.3741 5.41067V5.41067ZM95.0787 12.9542C94.9486 13.3134 94.7535 13.6277 94.4933 13.9196C94.2331 14.189 93.9513 14.4135 93.6261 14.5706C93.2792 14.7278 92.9106 14.8176 92.5204 14.8176C92.1301 14.8176 91.7832 14.7278 91.4364 14.5706C91.1111 14.4135 90.8076 14.189 90.5475 13.9196C90.2873 13.6501 90.0922 13.3134 89.9838 12.9542C89.7236 12.1908 89.7236 11.3602 89.9838 10.5968C90.1138 10.2376 90.309 9.92329 90.5475 9.65388C90.8076 9.38447 91.1111 9.15996 91.4364 9.00281C91.7832 8.84565 92.1518 8.75585 92.5204 8.75585C92.889 8.75585 93.2575 8.8232 93.6261 9.00281C93.9513 9.15996 94.2331 9.36202 94.4933 9.63143C94.7535 9.90084 94.9486 10.2152 95.0787 10.5744C95.3605 11.3377 95.3605 12.1908 95.0787 12.9542V12.9542ZM111.816 14.3237L110.407 13.2011C110.147 12.9766 109.886 12.9093 109.67 12.9991C109.475 13.0889 109.301 13.2236 109.149 13.3807C108.846 13.7624 108.477 14.0992 108.087 14.391C107.653 14.638 107.198 14.7727 106.721 14.7278C106.157 14.7278 105.637 14.5706 105.182 14.2339C104.727 13.8971 104.38 13.4481 104.206 12.8868C104.076 12.5051 104.011 12.1235 104.011 11.7418C104.011 11.3377 104.076 10.956 104.206 10.5519C104.336 10.1927 104.51 9.87839 104.77 9.60898C105.03 9.33957 105.312 9.11506 105.637 8.98036C105.984 8.8232 106.353 8.73339 106.743 8.73339C107.22 8.71094 107.697 8.84565 108.109 9.09261C108.521 9.36202 108.867 9.69878 109.171 10.1029C109.301 10.2601 109.475 10.3948 109.67 10.4846C109.886 10.5744 110.147 10.507 110.407 10.2825L111.816 9.18241C111.989 9.07016 112.12 8.89056 112.185 8.6885C112.271 8.46399 112.25 8.21703 112.12 8.01497C111.578 7.13939 110.84 6.42096 109.952 5.90458C109.019 5.36576 107.914 5.0739 106.678 5.0739C105.811 5.0739 104.943 5.25351 104.119 5.59027C103.339 5.92703 102.645 6.3985 102.06 7.00468C101.474 7.61085 100.997 8.32928 100.672 9.13751C100 10.8213 100 12.7072 100.672 14.391C100.997 15.1768 101.453 15.9177 102.06 16.5014C103.296 17.7587 104.943 18.4322 106.678 18.4322C107.914 18.4322 109.019 18.1403 109.952 17.6015C110.84 17.0851 111.599 16.3667 112.141 15.4687C112.25 15.2666 112.271 15.0196 112.206 14.8176C112.12 14.638 111.989 14.4584 111.816 14.3237V14.3237ZM124.868 16.9504L120.987 11.0683L124.304 6.53321C124.456 6.33115 124.521 6.03929 124.434 5.79233C124.369 5.61272 124.217 5.43311 123.805 5.43311L121.182 5.43311C121.03 5.43311 120.878 5.47802 120.748 5.54537C120.575 5.63517 120.445 5.76988 120.358 5.92703L117.713 9.76614H117.084V0.695979C117.084 0.516372 117.019 0.336762 116.889 0.202057C116.759 0.0673513 116.607 0 116.434 0L113.984 0C113.811 0 113.637 0.0673513 113.507 0.202057C113.377 0.336762 113.312 0.493921 113.312 0.695979V17.4219C113.312 17.6239 113.377 17.7811 113.507 17.9158C113.637 18.0505 113.811 18.1179 113.984 18.1179H116.434C116.607 18.1179 116.781 18.0505 116.889 17.9158C117.019 17.7811 117.084 17.6015 117.084 17.4219V12.9991H117.778L120.662 17.579C120.835 17.9158 121.16 18.1179 121.507 18.1179H124.261C124.673 18.1179 124.846 17.9158 124.933 17.7362C125.041 17.4668 125.019 17.1749 124.868 16.9504V16.9504ZM63.772 5.41067H61.0186C60.8018 5.41067 60.6067 5.47802 60.4549 5.63517C60.3248 5.76988 60.2381 5.92703 60.1947 6.10664L58.1568 13.9196H57.6581L55.4901 6.10664C55.4467 5.94949 55.3817 5.79233 55.2733 5.63517C55.1432 5.47802 54.9697 5.38821 54.7746 5.38821L51.9778 5.38821C51.6093 5.38821 51.3925 5.50047 51.2841 5.76988C51.219 5.99439 51.219 6.24135 51.2841 6.46586L54.7529 17.4668C54.818 17.6239 54.883 17.8036 55.0131 17.9158C55.1432 18.0505 55.3383 18.1179 55.5334 18.1179H57.0077L56.8776 18.4771L56.5524 19.4874C56.444 19.8017 56.2706 20.0711 56.0104 20.2732C55.7719 20.4528 55.4901 20.565 55.1866 20.5426C54.9264 20.5426 54.6879 20.4752 54.4494 20.3854C54.2109 20.2732 53.9941 20.1384 53.799 19.9813C53.6256 19.8466 53.4088 19.7792 53.1703 19.7792H53.1486C52.8884 19.8017 52.6499 19.9364 52.5198 20.1833L51.6526 21.5079C51.3057 22.0917 51.5009 22.4509 51.7177 22.6529C52.1946 23.102 52.7367 23.4387 53.3437 23.6408C54.0158 23.8877 54.7096 24 55.4034 24C56.6608 24 57.7015 23.6408 58.5037 22.9448C59.3275 22.1815 59.9563 21.1936 60.2598 20.0711L64.2924 6.46586C64.3791 6.2189 64.4008 5.97194 64.314 5.74743C64.2924 5.59027 64.1406 5.41067 63.772 5.41067Z" fill="#011B33"/>
</svg>
