<svg width="59" height="24" viewBox="0 0 59 24" fill="none" xmlns="http://www.w3.org/2000/svg">
<path fill-rule="evenodd" clip-rule="evenodd" d="M59.0002 12.4005C59.0002 8.29906 56.968 5.06274 53.0838 5.06274C49.1832 5.06274 46.8232 8.29906 46.8232 12.3685C46.8232 17.1909 49.6094 19.6262 53.6082 19.6262C55.5585 19.6262 57.0335 19.1936 58.148 18.5848V15.3805C57.0335 15.9252 55.7552 16.2617 54.1327 16.2617C52.543 16.2617 51.1335 15.717 50.9532 13.8264H58.9674C58.9674 13.6182 59.0002 12.785 59.0002 12.4005ZM50.9041 10.8785C50.9041 9.06809 52.0349 8.31508 53.0674 8.31508C54.0671 8.31508 55.1324 9.06809 55.1324 10.8785H50.9041Z" fill="#0A2540"/>
<path fill-rule="evenodd" clip-rule="evenodd" d="M40.4976 5.06274C38.8915 5.06274 37.859 5.79973 37.2854 6.31241L37.0724 5.31909H33.4668V24L37.564 23.1509L37.5804 18.6168C38.1704 19.0334 39.039 19.6262 40.4812 19.6262C43.4149 19.6262 46.0862 17.3191 46.0862 12.2403C46.0699 7.59412 43.3657 5.06274 40.4976 5.06274ZM39.5143 16.1015C38.5474 16.1015 37.9737 15.765 37.5804 15.3485L37.564 9.40453C37.9901 8.93991 38.5801 8.61949 39.5143 8.61949C41.0057 8.61949 42.0382 10.2537 42.0382 12.3525C42.0382 14.4993 41.0221 16.1015 39.5143 16.1015Z" fill="#0A2540"/>
<path fill-rule="evenodd" clip-rule="evenodd" d="M27.8281 4.11749L31.9417 3.25234V0L27.8281 0.849132V4.11749Z" fill="#0A2540"/>
<path d="M31.9417 5.33514H27.8281V19.3538H31.9417V5.33514Z" fill="#0A2540"/>
<path fill-rule="evenodd" clip-rule="evenodd" d="M23.4204 6.52068L23.1582 5.3351H19.6182V19.3538H23.7154V9.85312C24.6823 8.61948 26.3212 8.84378 26.8293 9.02001V5.3351C26.3048 5.14284 24.3873 4.79037 23.4204 6.52068Z" fill="#0A2540"/>
<path fill-rule="evenodd" clip-rule="evenodd" d="M15.2252 1.85846L11.2263 2.69157L11.21 15.5247C11.21 17.8958 13.0291 19.6422 15.4547 19.6422C16.7986 19.6422 17.7819 19.4018 18.3227 19.1135V15.8611C17.7983 16.0694 15.2089 16.8064 15.2089 14.4352V8.74764H18.3227V5.3351H15.2089L15.2252 1.85846Z" fill="#0A2540"/>
<path fill-rule="evenodd" clip-rule="evenodd" d="M4.14639 9.40453C4.14639 8.7797 4.67083 8.53938 5.53944 8.53938C6.785 8.53938 8.35833 8.90787 9.60389 9.56475V5.79973C8.24361 5.27102 6.89972 5.06274 5.53944 5.06274C2.2125 5.06274 0 6.76101 0 9.59679C0 14.0187 6.22778 13.3137 6.22778 15.2203C6.22778 15.9573 5.57222 16.1976 4.65444 16.1976C3.29417 16.1976 1.55694 15.6529 0.180278 14.9159V18.729C1.70444 19.3698 3.245 19.6422 4.65444 19.6422C8.06333 19.6422 10.4069 17.992 10.4069 15.1242C10.3906 10.3498 4.14639 11.1989 4.14639 9.40453Z" fill="#0A2540"/>
</svg>
